:SAMPLES-PER-SECOND 30
:FULLY-SPECIFIED
:DEGREES
467
root  0.607715 30.6475 64.7597 -77.4745 0.128939 82.1503
Spine  3.88819 4.16251 2.97601
Spine1  2.53163 -11.7408 7.81834
Neck  3.97569e-016 0 -2.38542e-015
Head  15.8782 -5.07403 28.0433
R_Clavicle  0.399476 -10.959 1.92333
R_UpperArm  17.1711 7.30911 5.37577
R_Forearm  10.0179 0.097623 -0.104083
R_Hand  -0.339751 5.44772 -12.3233
L_Clavicle  -0.486953 17.1339 -0.115336
L_UpperArm  -22.2388 18.555 33.8326
L_Forearm  -4.44022 23.1198 29.5359
L_Hand  -0.123817 1.37893 -1.95786
L_Thigh  -2.4785 -14.0635 15.0259
L_Calf  6.49252 -1.62665 12.088
L_Foot  2.75359 11.9869 -0.549181
L_Toe0  0.505156 0.034446 -6.1361
R_Thigh  5.1294 -5.70647 -10.9635
R_Calf  9.53397 -2.93106 -9.16661
R_Foot  -0.502916 -0.372238 3.29078
R_Toe0  4.24898 -0.67091 -14.1926
468
root  1.18083 30.6959 64.4708 -76.1136 1.55322 86.2894
Spine  5.7048 7.08045 3.27415
Spine1  3.87957 -12.6732 6.17769
Neck  3.97569e-016 0 -2.38542e-015
Head  10.3018 -2.43236 29.2382
R_Clavicle  0.471149 -6.6228 2.50377
R_UpperArm  16.3178 10.2234 0.808965
R_Forearm  11.7092 -0.729295 0.584183
R_Hand  -0.306102 5.30212 -11.9056
L_Clavicle  -0.479189 16.7258 -0.796705
L_UpperArm  -23.9668 20.5256 36.8564
L_Forearm  -4.94656 19.478 24.1009
L_Hand  -0.125041 2.2 -1.71949
L_Thigh  1.34562 -11.1037 17.7767
L_Calf  6.83593 -1.40328 10.2182
L_Foot  3.08073 10.3258 1.88979
L_Toe0  0.505156 0.034446 -6.1361
R_Thigh  3.72022 -3.65981 -17.5081
R_Calf  4.36373 1.41542 4.37556
R_Foot  0.835691 4.3495 6.28487
R_Toe0  9.72255 -1.60845 -7.98963
469
root  1.61646 30.4267 64.1424 -74.8373 2.10138 89.607
Spine  7.34858 10.0907 4.02045
Spine1  4.85022 -14.3195 5.36184
Neck  3.97569e-016 0 -2.38542e-015
Head  4.07354 0.205147 29.0036
R_Clavicle  0.654682 -2.61905 3.4871
R_UpperArm  16.5903 13.7099 -2.8509
R_Forearm  13.69 -1.23921 1.00878
R_Hand  -0.359808 4.96669 -12.1606
L_Clavicle  -0.461078 16.2168 -1.22186
L_UpperArm  -26.4835 21.7483 39.6749
L_Forearm  -6.33368 14.3604 17.1891
L_Hand  -0.0907459 2.69189 -1.14355
L_Thigh  4.02111 -8.85176 20.6963
L_Calf  7.03532 -0.880591 6.20293
L_Foot  3.99276 10.0673 5.20781
L_Toe0  0.505156 0.034446 -6.1361
R_Thigh  0.654516 -1.35201 -24.8462
R_Calf  -1.75389 5.66136 17.8864
R_Foot  2.54903 9.79583 12.6388
R_Toe0  -0.243249 -0.21449 -2.30496
470
root  1.86399 30.0319 63.6838 -73.4279 2.03634 91.8679
Spine  8.61654 12.7011 4.42872
Spine1  5.34853 -15.969 6.27714
Neck  3.97569e-016 0 -2.38542e-015
Head  -3.4479 2.77536 26.0555
R_Clavicle  0.819358 -0.761237 4.23727
R_UpperArm  18.3207 17.9534 -3.80954
R_Forearm  13.4472 0.0626372 -0.0737308
R_Hand  -0.549288 5.47704 -14.3229
L_Clavicle  -0.465391 16.3537 -0.676107
L_UpperArm  -28.9367 20.7165 40.1605
L_Forearm  -9.20064 8.36228 9.7642
L_Hand  -0.134171 1.8865 -1.92113
L_Thigh  5.89166 -7.53809 22.81
L_Calf  7.38439 -0.277358 1.68022
L_Foot  5.04449 10.2404 8.55389
L_Toe0  0.505156 0.034446 -6.1361
R_Thigh  -2.7344 1.35545 -31.8041
R_Calf  -1.45685 9.15473 29.933
R_Foot  2.16554 9.29869 19.1113
R_Toe0  -4.62559 0.405679 -10.2552
471
root  1.93757 29.7735 63.0842 -71.6642 2.10933 92.7532
Spine  9.27966 13.9919 3.83271
Spine1  5.41099 -17.2154 9.53524
Neck  3.97569e-016 0 -2.38542e-015
Head  -12.4222 4.75686 21.048
R_Clavicle  0.818815 -1.36701 4.29671
R_UpperArm  23.4283 21.104 -0.264266
R_Forearm  14.384 4.50596 -3.77843
R_Hand  -0.840187 6.7462 -17.3536
L_Clavicle  -0.480833 17.2596 0.779927
L_UpperArm  -31.8061 17.2044 36.4608
L_Forearm  -11.0851 2.11006 2.4274
L_Hand  -0.214738 0.741318 -3.83669
L_Thigh  7.45302 -7.55252 23.4388
L_Calf  8.09291 0.0978471 -1.13375
L_Foot  5.68589 9.54232 11.4336
L_Toe0  0.505156 0.034446 -6.1361
R_Thigh  -3.63239 3.14204 -36.5808
R_Calf  2.48118 11.1026 38.4073
R_Foot  0.965559 6.99362 20.7294
R_Toe0  -3.49396 -0.130185 -14.8379
